<svg id="Capa_1" enable-background="new 0 0 512 512" height="512" viewBox="0 0 512 512" width="512" xmlns="http://www.w3.org/2000/svg"><g><path d="m0 36.71h512v288h-512z" fill="#ff3d58"/><path d="m256 36.71h256v288h-256z" fill="#d20173"/><path d="m171.48 180.71c-2.49-3.46-5.43-6.57-8.73-9.25 4.31-6.65 6.83-14.57 6.83-23.07 0-23.46-19.09-42.55-42.55-42.55h-49.77v149.78s47.15-.21 55.84-.21c26.04 0 47.22-21.19 47.22-47.22 0-10.25-3.28-19.74-8.84-27.48zm-64.22-44.87h19.77c6.92 0 12.55 5.63 12.55 12.55s-5.63 12.54-12.55 12.54c-2.58 0-19.77.04-19.77.04zm25.84 89.57c-4.74 0-16.23.04-25.84.08v-34.5c2.42-.01 25.84-.02 25.84-.02 9.5 0 17.22 7.72 17.22 17.22 0 9.49-7.72 17.22-17.22 17.22z" fill="#f1f1f1"/><path d="m438.41 122.86-37.66 57.85-3.99 6.13-.17 68.42-30-.07.17-68.37-3.99-6.11-37.94-58.11 25.12-16.4 31.8 48.7 31.51-48.41z" fill="#d6d6ea"/><path d="m312.59 105.88v97.28c0 14.04-5.35 33.47-30.81 46.29-7.53 3.94-16.59 6-25.78 6.04-10.89.05-21.96-2.73-30.88-8.58-17.06-10.9-25.71-25.59-25.71-43.66v-97.37h30v97.37c0 6.49 2.02 12.09 11.86 18.38 3.95 2.61 9.27 3.97 14.73 3.88 4.19-.06 8.48-.98 12.28-2.85 12.68-6.39 14.31-13.77 14.31-19.5v-97.28z" fill="#f1f1f1"/><path d="m335.122 248.55-12.64 4.76-12.63 4.75-21.21 203.52 25.31 13.71 70.52-57.21 90.74-3.46 10-26.99z" fill="#97cbff"/><path d="m485.212 387.63-10 26.99-90.74 3.46-61.99-164.77 12.64-4.76z" fill="#7f7cff"/><path d="m312.59 105.88v97.28c0 14.04-5.35 33.47-30.81 46.29-7.53 3.94-16.59 6-25.78 6.04v-29.98c4.19-.06 8.48-.98 12.28-2.85 12.68-6.39 14.31-13.77 14.31-19.5v-97.28z" fill="#d6d6ea"/></g></svg>