<svg xmlns="http://www.w3.org/2000/svg" viewBox="0 0 1440 320">
  <path fill="#DD014F" fill-opacity="1" d="M0,0L26.7,32C53.3,64,107,128,160,154.7C213.3,181,267,171,320,144C373.3,117,427,75,480,74.7C533.3,75,587,117,640,154.7C693.3,192,747,224,800,240C853.3,256,907,256,960,234.7C1013.3,213,1067,171,1120,170.7C1173.3,171,1227,213,1280,234.7C1333.3,256,1387,256,1413,256L1440,256L1440,320L1413.3,320C1386.7,320,1333,320,1280,320C1226.7,320,1173,320,1120,320C1066.7,320,1013,320,960,320C906.7,320,853,320,800,320C746.7,320,693,320,640,320C586.7,320,533,320,480,320C426.7,320,373,320,320,320C266.7,320,213,320,160,320C106.7,320,53,320,27,320L0,320Z"></path>
</svg>